<svg id="duimpje" xmlns="http://www.w3.org/2000/svg" xmlns:xlink="http://www.w3.org/1999/xlink" viewBox="0 0 189.72 186.71">
  <defs>
    <linearGradient id="Naamloos_verloop_8" data-name="Naamloos verloop 8" x1="-5944.1" y1="1448.45" x2="-5783.1" y2="1448.45" gradientTransform="translate(-5754.39 1540.46) rotate(180)" gradientUnits="userSpaceOnUse">
      <stop offset="0.46" stop-color="#a87b22"/>
      <stop offset="0.52" stop-color="#b08321" stop-opacity="0.91"/>
      <stop offset="0.66" stop-color="#c3981e" stop-opacity="0.68"/>
      <stop offset="0.83" stop-color="#e3ba19" stop-opacity="0.32"/>
      <stop offset="0.97" stop-color="#ffd815" stop-opacity="0"/>
      <stop offset="1" stop-color="#a37d2e" stop-opacity="0.1"/>
    </linearGradient>
    <linearGradient id="Naamloos_verloop_8-2" x1="160.12" y1="133.93" x2="189.63" y2="133.93" gradientTransform="matrix(1, 0, 0, 1, 0, 0)" xlink:href="#Naamloos_verloop_8"/>
    <linearGradient id="Naamloos_verloop_8-3" x1="12.58" y1="121.41" x2="39.81" y2="121.41" gradientTransform="matrix(1, 0, 0, 1, 0, 0)" xlink:href="#Naamloos_verloop_8"/>
    <linearGradient id="Naamloos_verloop_8-4" x1="60.71" y1="163.47" x2="84.15" y2="163.47" gradientTransform="matrix(1, 0, 0, 1, 0, 0)" xlink:href="#Naamloos_verloop_8"/>
    <linearGradient id="Naamloos_verloop_8-5" x1="122.48" y1="167.6" x2="144.76" y2="167.6" gradientTransform="matrix(1, 0, 0, 1, 0, 0)" xlink:href="#Naamloos_verloop_8"/>
    <linearGradient id="Naamloos_verloop_8-6" x1="29.84" y1="134.45" x2="52.06" y2="134.45" gradientTransform="matrix(1, 0, 0, 1, 0, 0)" xlink:href="#Naamloos_verloop_8"/>
    <linearGradient id="Naamloos_verloop_8-7" x1="84.57" y1="178.07" x2="104.83" y2="178.07" gradientTransform="matrix(1, 0, 0, 1, 0, 0)" xlink:href="#Naamloos_verloop_8"/>
    <linearGradient id="Naamloos_verloop_8-8" x1="105.91" y1="177.95" x2="124.64" y2="177.95" gradientTransform="matrix(1, 0, 0, 1, 0, 0)" xlink:href="#Naamloos_verloop_8"/>
    <linearGradient id="Naamloos_verloop_8-9" x1="46.08" y1="149.84" x2="70.5" y2="149.84" gradientTransform="matrix(1, 0, 0, 1, 0, 0)" xlink:href="#Naamloos_verloop_8"/>
    <linearGradient id="Naamloos_verloop_8-10" x1="0" y1="106.67" x2="18.97" y2="106.67" gradientTransform="matrix(1, 0, 0, 1, 0, 0)" xlink:href="#Naamloos_verloop_8"/>
    <linearGradient id="Naamloos_verloop_8-11" x1="139.44" y1="151.28" x2="159.95" y2="151.28" gradientTransform="matrix(1, 0, 0, 1, 0, 0)" xlink:href="#Naamloos_verloop_8"/>
    <linearGradient id="Naamloos_verloop_8-12" x1="153.38" y1="144.53" x2="169.35" y2="144.53" gradientTransform="matrix(1, 0, 0, 1, 0, 0)" xlink:href="#Naamloos_verloop_8"/>
    <linearGradient id="Naamloos_verloop_8-13" x1="30.93" y1="8.78" x2="47.95" y2="8.78" gradientTransform="matrix(1, 0, 0, 1, 0, 0)" xlink:href="#Naamloos_verloop_8"/>
    <linearGradient id="Naamloos_verloop_8-14" x1="71.98" y1="8.8" x2="92.89" y2="8.8" gradientTransform="matrix(1, 0, 0, 1, 0, 0)" xlink:href="#Naamloos_verloop_8"/>
    <linearGradient id="Naamloos_verloop_8-15" x1="135.88" y1="8.81" x2="156.75" y2="8.81" gradientTransform="matrix(1, 0, 0, 1, 0, 0)" xlink:href="#Naamloos_verloop_8"/>
    <linearGradient id="Naamloos_verloop_8-16" x1="115.94" y1="8.71" x2="134.39" y2="8.71" gradientTransform="matrix(1, 0, 0, 1, 0, 0)" xlink:href="#Naamloos_verloop_8"/>
    <linearGradient id="Naamloos_verloop_8-17" x1="49.57" y1="8.74" x2="70.53" y2="8.74" gradientTransform="matrix(1, 0, 0, 1, 0, 0)" xlink:href="#Naamloos_verloop_8"/>
    <linearGradient id="Naamloos_verloop_8-18" x1="158.41" y1="8.75" x2="178.4" y2="8.75" gradientTransform="matrix(1, 0, 0, 1, 0, 0)" xlink:href="#Naamloos_verloop_8"/>
    <linearGradient id="Naamloos_verloop_8-19" x1="94.7" y1="8.75" x2="114.53" y2="8.75" gradientTransform="matrix(1, 0, 0, 1, 0, 0)" xlink:href="#Naamloos_verloop_8"/>
  </defs>
  <title>duimpje</title>
  <g id="Laag_2" data-name="Laag 2">
    <g id="Voetbalanalisten">
      <g>
        <g>
          <path d="M28.73,91.3c0,5,2.22,7.25,7.28,7.28q10.43,0,20.85,0h0c1.52,0,3,0,4.55,0,5.49,0,7.54-2.11,7.55-7.66v-.2a5.28,5.28,0,0,0,1.83.56A4.68,4.68,0,0,1,74,93.37c6.84,13.47,13.62,27,20.19,40.56a22,22,0,0,1,2.06,8.22c.46,8.48-8.49,7.87-8.4,16.36,0,2,1.44,2.75,3.17,3.47,6.54,2.71,15.19,1.52,21.26-1.52,5.24-2.62,11-7.62,12.18-13.35,2.55-11.93,3.47-22.53-2.29-34.79,1.78,0,3.39-.14,5,0,14.49,1.4,29,2.87,43.47,4.3,6.2.61,10.75-2.76,11.87-8.88s-1-10.56-6.83-13.68c7.42.45,12.45-2.32,13.77-7.84a15.59,15.59,0,0,0-.24-7.43c-1.13-4.14-4.64-6.16-8.83-7.54,5.78-3.22,7.92-7.85,6.67-13.83-1.14-5.47-4.89-8.14-11-8.59,5.43-4.5,6.84-9.72,5-15.8s-7.11-6.26-12.28-6.79c-10.42-1.07-20.82-2.32-31.21-3.67-14.82-1.93-29.65-3.37-44.44-.15-7.42,1.62-14.66,4-22,5.78a6,6,0,0,0-2.26.94c-.66-3.15-2.83-4.68-6.7-4.69-7.17,0-14.34,0-21.51,0H36c-5.07,0-7.22,2.15-7.22,7.27Q28.7,61.52,28.73,91.3Z" style="fill: url(#Naamloos_verloop_8)"/>
          <g>
            <path d="M160.12,134.25l6.16-4.72c0,2.08,1.27,2.37,2.52,2.74,1.92.57,3.81,1.21,5.71,1.81.4.13.82.19,1.44.32,0-1.2,0-2.23,0-3.24a33.9,33.9,0,0,0-.54-4.4,4.82,4.82,0,0,0-1.17-2.1c-.59-.63-.62-1.09,0-1.58q1.89-1.47,3.83-2.88c.51-.36.88-.28,1,.42a2.76,2.76,0,0,0,.41,1.23c2.57,3.26,5.13,6.52,7.79,9.71a8.42,8.42,0,0,0,2.37,1.34,38.16,38.16,0,0,1-5.3,4.07c-.41-2.73-2.48-4.05-4-5.84.25,2.44-.36,5,1,7.23a1.08,1.08,0,0,1-.07,1,21.84,21.84,0,0,1-1.89,1.53,17.33,17.33,0,0,0-8.4-2.8c.37.53.71,1.08,1.12,1.58a21.35,21.35,0,0,0,2.11,2.44,12.33,12.33,0,0,0,2.14,1.27c-1.52,1.91-3.73,3.12-5.81,4.51-.17-.22-.27-.29-.26-.34.13-2.33-1.24-3.92-2.6-5.58-1.52-1.84-2.89-3.82-4.36-5.72a3.25,3.25,0,0,0-3-1.68Z" style="fill: url(#Naamloos_verloop_8-2)"/>
            <path d="M18.47,126a62.64,62.64,0,0,1-5.89-5.17c1.92.22,2.84-.78,3.75-1.78,1.83-2,3.64-4,5.47-6,1.2-1.33,2.51-2.59,2.32-5l5.61,5c-2.81,1.33-2.35,3.9-2.18,6.28.17,2.22.57,4.41.92,7,2.52-2.8,5.25-5,6.72-8.32l4.62,4.12a108.91,108.91,0,0,0-11.55,12.71l-4.6-4.35c2.26-.43,2.13-1.89,2.06-3.26-.14-2.71-.33-5.41-.54-8.12a5.84,5.84,0,0,0-.44-1.32C23,119.08,18.72,124.62,18.47,126Z" style="fill: url(#Naamloos_verloop_8-3)"/>
            <path d="M65.93,167.88l-5.22-4.44.13-.4c1.91.27,2.83-1,3.86-2.18,1.86-2.09,3.76-4.14,5.57-6.27.93-1.09,2.1-2.12,1.72-4.07,1.63,1.42,3.07,2.65,4.48,3.91,1.8,1.64,3.65,3.24,5.34,5a9.33,9.33,0,0,1,2.07,3.14,4.42,4.42,0,0,1-5,5.8,2.48,2.48,0,0,0-.64-.07,22.66,22.66,0,0,1-.52,4.23,24,24,0,0,1-2.06,3.9l-5.75-4.93c.8-.19,1.19-.31,1.59-.37,1.87-.26,3.19-2.44,2.17-4a25.51,25.51,0,0,0-3.71-4c-.14-.14-.87.06-1.1.31-1.18,1.26-2.75,2.28-2.58,4.4Zm13.95-5.36a8.28,8.28,0,0,0-1-1.83c-1.05-1.09-2.2-2.08-3.33-3.1-.46-.42-1-.84-1.55-.19a22.48,22.48,0,0,0-1.76,2.81c0,.07.4.44.64.65,1,.9,2,1.81,3.07,2.67a5,5,0,0,0,1.43.84C78.69,164.85,79.75,164,79.88,162.52Z" style="fill: url(#Naamloos_verloop_8-4)"/>
            <path d="M122.48,165.08c1.61-1.37,3.38-2.89,5.17-4.4.86-.72,1.83-1.31,2.61-2.1,2.78-2.81,10.54-2.79,13.32,1.51a6.91,6.91,0,0,1,1.17,3.41,10.77,10.77,0,0,1-4.45,9.33c-2.24,1.68-4.39,3.47-6.59,5.2a3.48,3.48,0,0,1-1.11.53c.64-1.83-.72-2.7-1.58-3.78-2.24-2.81-4.48-5.63-6.78-8.39A9.25,9.25,0,0,0,122.48,165.08Zm11.72-4.27c-2.11-.39-3.8,1.26-5.56,2.68-.14.11-.1.69.06.9q3,3.75,6,7.45a1.05,1.05,0,0,0,1,.25c2-1.24,3.74-2.74,4.41-5.14a3.5,3.5,0,0,0-.51-3.18A7.18,7.18,0,0,0,134.2,160.81Z" style="fill: url(#Naamloos_verloop_8-5)"/>
            <path d="M41.38,123.45c2.45,2.16,5,4.45,7.65,6.72a7.88,7.88,0,0,1,2.62,4.33c.75,3.32.65,6.49-1.94,9a6,6,0,0,1-2.83,1.62A10.69,10.69,0,0,1,37,142.6c-2.18-2-4.4-3.95-6.58-5.94a2.26,2.26,0,0,1-.55-1c1.52.46,2.1-.62,2.82-1.44,2.54-2.87,5.11-5.73,7.61-8.64A11,11,0,0,0,41.38,123.45Zm6.11,11.82c.16-2.79-1.76-4.32-3.58-5.89-.14-.13-.76,0-.95.26-2.12,2.32-4.22,4.67-6.27,7.07a1.18,1.18,0,0,0,0,1.15,9.83,9.83,0,0,0,2,1.87c4.13,2.81,7.36,1.67,8.62-3.15A9.38,9.38,0,0,0,47.49,135.27Z" style="fill: url(#Naamloos_verloop_8-6)"/>
            <path d="M84.57,186.11c1.54-.53,1.28-1.73,1.28-2.82,0-3.88,0-7.75,0-11.63a8.24,8.24,0,0,0-.67-2.13,2,2,0,0,1,.54-.1c3.35,0,6.71,0,10.07,0,3.94,0,9.68,4.55,9,9.92a5.69,5.69,0,0,1-.89,2.56,10.74,10.74,0,0,1-9.14,4.81c-3,0-6-.05-9-.1a4.19,4.19,0,0,1-1-.24Zm5.88-8.44c0,1.56,0,3.12,0,4.67,0,.72.27,1,1,1a17.53,17.53,0,0,0,3,0c4.37-.84,6.13-3.28,4.21-7.54-1.36-3-4-3.89-7.13-3.71-.79,0-1.06.29-1,1C90.47,174.64,90.45,176.16,90.45,177.67Z" style="fill: url(#Naamloos_verloop_8-7)"/>
            <path d="M124.42,174.71c-2.22-2-4.69-1.47-7-1.56-1.24-.05-2.48,0-3.71-.09-.73,0-1,.21-1,.95a4.25,4.25,0,0,0,0,1.19c.14.35.51.85.8.86,1.74.08,3.48,0,5.28,0v3.57c-1.7,0-3.28,0-4.86,0-.74,0-1.11.27-1,1s-.58,1.81.78,1.86c2.91.11,5.82.14,8.74.13.35,0,.74-.38,1-.65a5,5,0,0,0,.59-.81l.38.09c0,.92,0,1.84,0,2.76-.08,2.59-.09,2.6-2.72,2.58q-7.25,0-14.5-.1a6.62,6.62,0,0,1-1.37-.36c2.23-1.11,2.19-3,2.2-4.66,0-3-.07-5.92-.27-8.87a7.22,7.22,0,0,0-1-2.28c-.1-.2-.23-.38-.47-.78a15,15,0,0,1,1.74-.22c4.43,0,8.87.07,13.3.08,3.23,0,3.36.13,3.23,3.35C124.58,173.29,124.5,173.84,124.42,174.71Z" style="fill: url(#Naamloos_verloop_8-8)"/>
            <path d="M63.08,158.32c-1.19,1.29-2.22,2.46-3.35,3.55-.13.13-.81-.1-1.08-.34-3-2.72-6-5.49-9-8.21-.89-.81-1.86-1.52-2.76-2.31a3.31,3.31,0,0,1-.77-1.13c2.34.4,3.54-1.17,4.75-2.53,1.89-2.12,3.72-4.29,5.42-6.56a11.13,11.13,0,0,0,1.11-3,2.71,2.71,0,0,1,.81.4c3.94,3.56,7.85,7.14,11.8,10.69.69.62.72,1.12,0,1.77-.88.83-1.68,1.75-2.77,2.9-.33-3.1-2.53-4.32-4.26-5.93-1.1-1-2.23-2-3.46-3.15l-1.93,2.18,4.6,4.19-2.43,2.6c-1.27-1.15-2.49-2.17-3.62-3.28-.71-.7-1.14-.3-1.54.24s-1.44.91-.47,1.81c2.11,2,4.16,4,6.36,5.82C61,158.42,61.94,158.22,63.08,158.32Z" style="fill: url(#Naamloos_verloop_8-9)"/>
            <path d="M8,96.77a26.32,26.32,0,0,1,3.07.87c2.58,1.07,4.95,2.49,6.38,5,1.88,3.31,2.36,8.42-.43,11.46a7.59,7.59,0,0,1-7.76,2.21,11.23,11.23,0,0,1-7.92-6.7,9.87,9.87,0,0,1-1.26-5.52C.67,99.65,3.46,97.11,8,96.77Zm2.21,3.77a7.54,7.54,0,0,0-1,.16c-2.87.78-4.12,3-4.78,5.6-.74,3,2.18,6.14,5.22,5.92s4.69-2,5.67-4.68C16.7,103.66,13.62,100.69,10.19,100.54Z" style="fill: url(#Naamloos_verloop_8-10)"/>
            <path d="M147.54,145.09l4.94-4.38c.22,2.32,1.88,3.49,3,5s2.28,2.88,3.39,4.34a5.44,5.44,0,0,1,.7,5.45,10.53,10.53,0,0,1-8.86,6.36c-2.14,0-3.61-1.17-4.88-2.65-1.56-1.82-3-3.74-4.54-5.56a16.26,16.26,0,0,0-1.81-1.62l4.34-3.87a23.36,23.36,0,0,0,1.47,2.29c1.55,1.88,3.15,3.71,4.75,5.54a6.85,6.85,0,0,0,1.44,1.25,2.63,2.63,0,0,0,3.3-.37,2.27,2.27,0,0,0,.33-3.16c-2.09-2.76-4.32-5.43-6.53-8.1C148.31,145.33,147.85,145.25,147.54,145.09Z" style="fill: url(#Naamloos_verloop_8-11)"/>
            <path d="M158.66,135.72c.21,2.86,2.46,4.29,3.85,6.26s3,3.83,4.6,5.68a4.85,4.85,0,0,0,1.53.87,6.08,6.08,0,0,0,.71.3l-4.93,4.52c-2.27-4.84-6.38-8.15-9.27-12.38-.29-.44-1-.62-1.77-1.1.85-.71,1.65-1.42,2.49-2.08S157.59,136.51,158.66,135.72Z" style="fill: url(#Naamloos_verloop_8-12)"/>
          </g>
        </g>
        <g id="content">
          <path d="M30.93,7.46a8,8,0,0,1,2.3-4.33A11.54,11.54,0,0,1,46,1.4c2.38,1.18,2.38,1.18.83,3.45-.26.39-.54.77-.83,1.18-2.1-2.74-4.67-3.53-7.17-2.3-2.81,1.39-3.61,6.15-1.44,8.42,1.3,1.36,2.73,2.32,4.73,2.07,1.18-.15,2.2-.5,2.6-1.76.26-.82.78-.79,1.24-.28a16.55,16.55,0,0,1,1.79,2.37,1.07,1.07,0,0,1-.31,1c-1.16.67-2.34,1.62-3.58,1.74a22.07,22.07,0,0,1-6.28-.37c-3-.6-4.79-2.86-6.2-5.41l-.49-.92Z" style="fill: url(#Naamloos_verloop_8-13)"/>
          <path d="M92.6,17.27H86.41c1.38-2,.07-3-1-4.1C83.71,11.39,82,9.65,80.18,7.93A12.93,12.93,0,0,0,78.5,6.81c0,1.15,0,1.92,0,2.68,0,2,.08,3.92.2,5.87a8.88,8.88,0,0,0,.57,1.91c-2.34.64-4.8-.16-7.3,0,1.65-1.35,1.31-3.2,1.37-4.89.1-2.76,0-5.52.07-8.28a4.17,4.17,0,0,0-1-3.23c-.17-.17-.18-.48-.31-.84h7.24c-1.27,2.67.47,4.29,2,5.85s3.59,3.16,5.69,5c.21-3.77.47-7.21-.52-10.7h6.3A100.09,100.09,0,0,0,92.6,17.27Z" style="fill: url(#Naamloos_verloop_8-14)"/>
          <path d="M136,.07h7.34c-1.32,2.31,0,3.88,1.4,5.26a61.72,61.72,0,0,0,6.13,5.28c.25-3.49.64-6.93-.4-10.41h6.26a107,107,0,0,0-.24,17.09h-6.14c1.37-2.22-.23-3.28-1.34-4.45-1.65-1.73-3.38-3.39-5.11-5a8.89,8.89,0,0,0-1.57-.92c.29,3.66,0,7,.58,10.46-2.11.6-4.56-.28-7.05,0,1.34-1.11,1.33-2.55,1.34-4,0-3.24.11-6.48,0-9.71A9.29,9.29,0,0,0,136.38,1C136.29.71,136.17.44,136,.07Z" style="fill: url(#Naamloos_verloop_8-15)"/>
          <path d="M115.94,16.7c1.73-.77,1.88-2.33,1.88-3.84,0-3.32-.11-6.63-.26-9.94a5.12,5.12,0,0,0-.76-1.68c-.14-.29-.31-.57-.46-.86a3.57,3.57,0,0,1,1-.3c1.59,0,3.18,0,4.77,0,2.79,0,5.58.11,8.37,0,3.83-.1,4.09.09,3.88,3.88,0,.38-.09.76-.17,1.29-3.48-2.38-7.3-1-10.91-1.42-.25,0-.77.49-.81.8-.24,2-.08,2.18,2,2.18h4.15v3.77c-1.59-.08-3.1-.12-4.6-.26-1-.09-1.34.39-1.31,1.32s-.15,1.6,1.14,1.59c2.75,0,5.5.17,8.25.08.66,0,1.3-.81,2.08-1.32a2.77,2.77,0,0,1,.2.74c0,1.12-.09,2.24,0,3.36,0,.91-.27,1.23-1.25,1.2-4.14-.12-8.29-.18-12.44-.23-1,0-2.07.12-3.11.13A11,11,0,0,1,116,17Z" style="fill: url(#Naamloos_verloop_8-16)"/>
          <path d="M61.13,17.43a11.78,11.78,0,0,1-9-3.22A7.64,7.64,0,0,1,54.12,1.45,11.92,11.92,0,0,1,63.31.56c3.6,1.22,7.25,4.58,7.22,8.9a7,7,0,0,1-1.9,4.78A9.39,9.39,0,0,1,61.13,17.43Zm4.44-9.34A6.75,6.75,0,0,0,63.4,3.48,5,5,0,0,0,57.57,3a4.88,4.88,0,0,0-2.8,5c.18,2.34.71,4.67,3.19,5.74C61.73,15.35,65.25,13,65.57,8.09Z" style="fill: url(#Naamloos_verloop_8-17)"/>
          <path d="M178.35,5.6c-1-1.65-2.39-1.35-3.62-1.43-1-.07-2.29-.29-3,.2-.53.36-.45,1.75-.49,2.69-.12,2.83-.21,5.66-.19,8.49,0,.56.58,1.12,1,1.8h-7c1.54-1.43,1.14-3,1.13-4.54,0-2.51-.07-5,0-7.54,0-.8-.3-1.06-1.06-1.06-1,0-2.07-.08-3.11-.1a3,3,0,0,0-3.1,1.37,2.58,2.58,0,0,1-.33-.71c0-1.24,0-2.48-.1-3.72,0-.69.29-.91.93-.9L177,.26c1.51,0,1.48,0,1.39,1.57C178.3,3,178.35,4.11,178.35,5.6Z" style="fill: url(#Naamloos_verloop_8-18)"/>
          <path d="M108.06,17.33h-6.92c1.59-1.43,1.08-3.08,1.1-4.62,0-2.48,0-5,0-7.43,0-.79-.29-1.08-1-1.06s-1.36-.06-2-.09C96.62,4,96.62,4,94.7,5.4V.3a3.07,3.07,0,0,1,.71-.14c5.91,0,11.82.09,17.73.08,1.11,0,1.5.28,1.36,1.44a27.83,27.83,0,0,0,0,3.27c-1-.26-1.86-.57-2.77-.72a13.58,13.58,0,0,0-2.39-.12c-2,0-2,0-2,2.08q0,4.18-.24,8.36c-.06,1.08,0,2,1.19,2.53Z" style="fill: url(#Naamloos_verloop_8-19)"/>
        </g>
      </g>
    </g>
  </g>
</svg>
