<svg id="opgeslagen" data-name="opgelsagen" xmlns="http://www.w3.org/2000/svg" viewBox="0 0 80 80">
  <title>Tekengebied 1</title>
  <g>
    <path d="M59.61,2.82H20.39A3.38,3.38,0,0,0,17,6.2v71l23-23,23,23V6.2A3.38,3.38,0,0,0,59.61,2.82Z" style="fill: #e5222f"/>
    <path d="M40.13,10.27l3.74,7.57a.11.11,0,0,0,.07.06l8.37,1.21a.1.1,0,0,1,0,.17l-6,5.9a.11.11,0,0,0,0,.08l1.43,8.33a.1.1,0,0,1-.14.11l-7.48-3.94a.14.14,0,0,0-.09,0L32.52,33.7a.11.11,0,0,1-.15-.11l1.43-8.33a.07.07,0,0,0,0-.08l-6.05-5.9a.1.1,0,0,1,.06-.17l8.36-1.21a.11.11,0,0,0,.07-.06L40,10.27A.1.1,0,0,1,40.13,10.27Z" style="fill: none;stroke: #fff;stroke-miterlimit: 10;stroke-width: 3px"/>
  </g>
</svg>
