<svg id="opgeslagen" data-name="Laag 1" xmlns="http://www.w3.org/2000/svg" viewBox="0 0 80 80">
  <title>Tekengebied 1</title>
  <g>
    <path d="M61.1,0H18.9a3.64,3.64,0,0,0-3.64,3.64V80L40,55.26,64.74,80V3.64A3.64,3.64,0,0,0,61.1,0Z" style="fill: #e5222f"/>
    <path d="M40.14,8l4,8.15a.09.09,0,0,0,.08.06l9,1.31a.11.11,0,0,1,.06.18l-6.51,6.34a.1.1,0,0,0,0,.1l1.53,9a.1.1,0,0,1-.15.11l-8-4.23A.08.08,0,0,0,40,29l-8,4.23a.1.1,0,0,1-.15-.11l1.53-9a.1.1,0,0,0,0-.1l-6.51-6.34a.11.11,0,0,1,.06-.18l9-1.31a.09.09,0,0,0,.08-.06L40,8A.11.11,0,0,1,40.14,8Z" style="fill: white;stroke: #fff;stroke-miterlimit: 10;stroke-width: 3px"/>
  </g>
</svg>
