<svg id="randen" data-name="randen" xmlns="http://www.w3.org/2000/svg" viewBox="0 0 750.08 1321.84">
  <title>Tekengebied 6</title>
  <g>
    <path d="M194.51,223.06c3.45,0,5.18-4.44,5.18-6.91s-.87-7.76-8.63-7.76c-6.16,0-8.63,6-8.63,12.08,0,7.76,9.9,12.94,19,12.94,12.08,0,20.27-10.79,20.27-19.41,0-21.57-23.72-28-35.8-28-16.39,0-36.45,10.74-60,22-26.09,12.48-40.12,18.55-58.23,18.55-22.43,0-37.1-8.63-37.1-25.89,0-14.66,12.94-25.88,25.88-25.88,9.68,0,18.88,6.8,20.71,8.63,2.15,2.16,8.62,12.08,14.66,12.08,6.91,0,14.67-2.59,22.43-10.36" style="fill: none;stroke: #1c6d9d;stroke-linecap: round;stroke-miterlimit: 10;stroke-width: 4px"/>
    <path d="M316.15,208.39s23.3,20.7,45.73,20.7c11.21,0,14.67-10.35,14.67-18.11,0-9.49-4.32-25-19.85-25-6,0-10.35,6-10.35,9.49s1.73,4.31,1.73,4.31" style="fill: none;stroke: #1c6d9d;stroke-linecap: round;stroke-miterlimit: 10;stroke-width: 4px"/>
    <path d="M561.17,223.33c-3.45,0-5.18-4.44-5.18-6.9s.87-7.77,8.63-7.77c6.16,0,8.63,6,8.63,12.08,0,7.77-9.9,12.94-19,12.94-12.08,0-20.28-10.78-20.28-19.41,0-21.57,23.73-28,35.81-28,16.39,0,36.44,10.75,60,22,26.09,12.49,40.11,18.55,58.23,18.55,22.43,0,37.1-8.63,37.1-25.88,0-14.67-12.94-25.88-25.88-25.88-9.68,0-18.88,6.79-20.71,8.62-2.16,2.16-8.63,12.08-14.66,12.08-6.91,0-14.67-2.59-22.44-10.35" style="fill: none;stroke: #1c6d9d;stroke-linecap: round;stroke-miterlimit: 10;stroke-width: 4px"/>
    <path d="M681.56,397.72c0,3.45,4.44,5.18,6.9,5.18s7.77-.87,7.77-8.63c0-6.16-6-8.63-12.08-8.63-7.76,0-12.94,9.9-12.94,19,0,12.08,10.78,20.28,19.41,20.28,21.57,0,28-23.73,28-35.81,0-16.39-10.75-36.44-22-60-12.49-26.08-18.55-40.11-18.55-58.23,0-22.43,8.63-37.1,25.88-37.1,14.67,0,25.88,12.94,25.88,25.88,0,9.68-6.79,18.88-8.62,20.71-2.16,2.16-12.08,8.63-12.08,14.67,0,6.9,2.59,14.66,10.35,22.43" style="fill: none;stroke: #1c6d9d;stroke-linecap: round;stroke-miterlimit: 10;stroke-width: 4px"/>
    <path d="M70.52,397.72c0,3.45-4.44,5.18-6.9,5.18s-7.76-.87-7.76-8.63c0-6.16,6-8.63,12.07-8.63,7.77,0,12.94,9.9,12.94,19,0,12.08-10.78,20.28-19.41,20.28-21.57,0-28-23.73-28-35.81,0-16.39,10.75-36.44,22-60C67.91,303.05,74,289,74,270.9c0-22.43-8.62-37.1-25.88-37.1-14.67,0-25.88,12.94-25.88,25.88,0,9.68,6.8,18.88,8.63,20.71C33,282.55,42.91,289,42.91,295.06c0,6.9-2.58,14.66-10.35,22.43" style="fill: none;stroke: #1c6d9d;stroke-linecap: round;stroke-miterlimit: 10;stroke-width: 4px"/>
    <path d="M679.56,923c0-3.45,4.44-5.18,6.9-5.18s7.77.86,7.77,8.63c0,6.15-6,8.63-12.08,8.63-7.76,0-12.94-9.9-12.94-19,0-12.08,10.78-20.28,19.41-20.28,21.57,0,28,23.73,28,35.81,0,16.39-10.75,36.44-22,60-12.49,26.08-18.55,40.11-18.55,58.23,0,22.43,8.63,37.1,25.88,37.1,14.67,0,25.88-12.94,25.88-25.88,0-9.68-6.79-18.88-8.62-20.71-2.16-2.16-12.08-8.63-12.08-14.67,0-6.9,2.59-14.66,10.35-22.43" style="fill: none;stroke: #1c6d9d;stroke-linecap: round;stroke-miterlimit: 10;stroke-width: 4px"/>
    <path d="M68.52,923c0-3.45-4.44-5.18-6.9-5.18s-7.76.86-7.76,8.63c0,6.15,6,8.63,12.07,8.63,7.77,0,12.94-9.9,12.94-19,0-12.08-10.78-20.28-19.41-20.28-21.57,0-28,23.73-28,35.81,0,16.39,10.75,36.44,22,60C65.91,1017.65,72,1031.68,72,1049.8c0,22.43-8.62,37.1-25.88,37.1-14.67,0-25.88-12.94-25.88-25.88,0-9.68,6.8-18.88,8.63-20.71,2.15-2.16,12.07-8.63,12.07-14.67,0-6.9-2.58-14.66-10.35-22.43" style="fill: none;stroke: #1c6d9d;stroke-linecap: round;stroke-miterlimit: 10;stroke-width: 4px"/>
    <path d="M439.52,208.66s-23.29,20.71-45.72,20.71c-11.22,0-14.67-10.35-14.67-18.12,0-9.49,4.32-25,19.85-25,6,0,10.35,6,10.35,9.49S407.6,200,407.6,200" style="fill: none;stroke: #1c6d9d;stroke-linecap: round;stroke-miterlimit: 10;stroke-width: 4px"/>
    <path d="M192.51,1098.78c3.45,0,5.18,4.44,5.18,6.9s-.87,7.77-8.63,7.77c-6.16,0-8.63-6-8.63-12.08,0-7.77,9.9-12.94,19-12.94,12.08,0,20.27,10.78,20.27,19.41,0,21.57-23.72,28-35.8,28-16.39,0-36.45-10.75-60-22-26.09-12.49-40.12-18.55-58.23-18.55-22.43,0-37.1,8.63-37.1,25.88,0,14.67,12.94,25.88,25.88,25.88,9.68,0,18.88-6.79,20.71-8.62,2.15-2.16,8.62-12.08,14.66-12.08,6.91,0,14.67,2.59,22.43,10.35" style="fill: none;stroke: #1c6d9d;stroke-linecap: round;stroke-miterlimit: 10;stroke-width: 4px"/>
    <path d="M314.15,1113.45s23.3-20.71,45.73-20.71c11.21,0,14.67,10.35,14.67,18.12,0,9.49-4.32,25-19.85,25-6,0-10.35-6-10.35-9.49s1.73-4.31,1.73-4.31" style="fill: none;stroke: #1c6d9d;stroke-linecap: round;stroke-miterlimit: 10;stroke-width: 4px"/>
    <path d="M559.17,1098.51c-3.45,0-5.18,4.44-5.18,6.9s.87,7.76,8.63,7.76c6.16,0,8.63-6,8.63-12.08,0-7.76-9.9-12.94-19-12.94-12.08,0-20.28,10.79-20.28,19.42,0,21.56,23.73,28,35.81,28,16.39,0,36.44-10.74,60-22,26.09-12.48,40.11-18.54,58.23-18.54,22.43,0,37.1,8.62,37.1,25.88,0,14.66-12.94,25.88-25.88,25.88-9.68,0-18.88-6.8-20.71-8.63-2.16-2.15-8.63-12.08-14.66-12.08-6.91,0-14.67,2.59-22.44,10.36" style="fill: none;stroke: #1c6d9d;stroke-linecap: round;stroke-miterlimit: 10;stroke-width: 4px"/>
    <path d="M437.52,1113.17s-23.29-20.7-45.72-20.7c-11.22,0-14.67,10.35-14.67,18.11,0,9.5,4.32,25,19.85,25,6,0,10.35-6,10.35-9.49s-1.73-4.31-1.73-4.31" style="fill: none;stroke: #1c6d9d;stroke-linecap: round;stroke-miterlimit: 10;stroke-width: 4px"/>
  </g>
</svg>
