<svg id="Snor" data-name="Snor" xmlns="http://www.w3.org/2000/svg" viewBox="0 0 400 400"><defs><style>.cls-1{fill:#fff;}.cls-2{fill:#1a1a18;}</style></defs><title>Tekengebied 19</title><path class="cls-1" d="M341.37,210.57c-22.08,5.52-39.12-17-54.74-29.38-16.7-13.29-32.71-22.58-54.25-17-14.5,3.78-26.5,11.06-34.35,22-7.85-10.9-19.85-18.18-34.34-22-21.56-5.6-37.56,3.69-54.27,17-15.61,12.41-32.65,34.9-54.73,29.38-9.66-2.42-27.57-16.3-34.82-22.21,0,0,3.42,63.26,77.28,81,54.1,13,87.95-16,100.88-30,12.93,14.06,46.77,43,100.88,30,73.85-17.77,77.27-81,77.27-81C368.94,194.27,351,208.15,341.37,210.57Z"/><path class="cls-2" d="M379,182.84a6.23,6.23,0,0,0-6.74.72c-10.49,8.58-25.27,19.22-32.38,21a22,22,0,0,1-5.37.68c-11.95,0-22.93-10-33.54-19.73-3.59-3.3-7-6.4-10.47-9.17-13.05-10.37-27.61-20-45.61-20a55.8,55.8,0,0,0-14.07,1.87C217.44,161.7,206.25,168,198,176.53c-8.22-8.56-19.41-14.83-32.78-18.31a55.92,55.92,0,0,0-14.07-1.87c-18,0-32.56,9.61-45.62,20-3.47,2.75-6.86,5.86-10.46,9.15C82.91,196.64,70,208,56.19,204.55c-7.08-1.76-21.88-12.41-32.4-21a6.2,6.2,0,0,0-10.11,5.14c0,.68,4.57,68.08,82,86.72a120,120,0,0,0,28.12,3.46c35.82,0,60.62-17.49,74.21-30.63,13.59,13.14,38.4,30.63,74.21,30.63a120.17,120.17,0,0,0,28.13-3.46c77.43-18.64,82-86,82-86.72A6.2,6.2,0,0,0,379,182.84Zm-81.52,80.53a108.41,108.41,0,0,1-25.23,3.11c-35.55,0-58.9-19.61-69.65-31.3a6.21,6.21,0,0,0-9.13,0c-10.74,11.69-34.08,31.3-69.64,31.3a108.26,108.26,0,0,1-25.22-3.11c-46.84-11.28-63.49-41.44-69.36-60,8,5.74,17.33,11.58,24,13.23a34.59,34.59,0,0,0,8.37,1c16.77,0,30.13-12.22,41.91-23,3.43-3.14,6.68-6.11,9.8-8.6,13.06-10.38,24.51-17.29,37.91-17.29a43.15,43.15,0,0,1,10.94,1.47c13.71,3.57,24.1,10.16,30.87,19.58a6.22,6.22,0,0,0,10.07,0c6.78-9.42,17.17-16,30.87-19.58a42.84,42.84,0,0,1,10.95-1.47c13.41,0,24.84,6.91,37.89,17.29,3.15,2.5,6.39,5.46,9.82,8.61,11.79,10.77,25.14,23,41.91,23a34.59,34.59,0,0,0,8.37-1c6.63-1.65,15.93-7.49,23.94-13.22C360.93,222,344.28,252.1,297.47,263.37Z"/><circle class="cls-2" cx="95.42" cy="209.97" r="3.72"/><circle class="cls-2" cx="110.3" cy="209.97" r="3.72"/><circle class="cls-2" cx="125.18" cy="209.97" r="3.72"/><circle class="cls-2" cx="117.74" cy="195.09" r="3.72"/><circle class="cls-2" cx="132.62" cy="195.09" r="3.72"/><circle class="cls-2" cx="147.5" cy="195.09" r="3.72"/><circle class="cls-2" cx="140.06" cy="180.21" r="3.72"/><circle class="cls-2" cx="154.94" cy="180.21" r="3.72"/><circle class="cls-2" cx="169.82" cy="180.21" r="3.72"/><circle class="cls-2" cx="300.01" cy="209.97" r="3.72"/><circle class="cls-2" cx="285.13" cy="209.97" r="3.72"/><circle class="cls-2" cx="270.25" cy="209.97" r="3.72"/><circle class="cls-2" cx="277.69" cy="195.09" r="3.72"/><circle class="cls-2" cx="262.81" cy="195.09" r="3.72"/><circle class="cls-2" cx="247.93" cy="195.09" r="3.72"/><circle class="cls-2" cx="255.37" cy="180.21" r="3.72"/><circle class="cls-2" cx="240.49" cy="180.21" r="3.72"/><circle class="cls-2" cx="225.61" cy="180.21" r="3.72"/></svg>
