<svg id="Volgende" xmlns="http://www.w3.org/2000/svg" viewBox="0 0 76.81 52.76">
  <title>Volgende</title>
  <g id="Laag_2" data-name="Laag 2">
    <g id="Laag_1-2" data-name="Laag 1">
      <g>
        <line x1="68.99" y1="26.33" x2="5" y2="26.33" style="fill: none;stroke: #6e6e70;stroke-linecap: round;stroke-miterlimit: 10;stroke-width: 10px"/>
        <path d="M51.31,1.16c8.1,6.76,15.84,13.9,23.49,21.12l.18.17a6.53,6.53,0,0,1,1.48,2.26,5.94,5.94,0,0,1,.24,3.15,5.86,5.86,0,0,1-1.43,2.84l-.36.36,0,0-.09.08-.36.34-.73.66-1.46,1.33L69.3,36.17c-2,1.75-3.9,3.53-5.89,5.25Q57.5,46.65,51.35,51.64a5,5,0,0,1-6.78-7.35Q50,38.56,55.71,33.09c1.88-1.85,3.8-3.64,5.7-5.46l2.89-2.7,1.44-1.35.72-.67.36-.34.09-.08,0,0-.34.34a5.82,5.82,0,0,0-1.18,5.92A6.18,6.18,0,0,0,66.9,31l-.18-.17C59.11,23.51,51.59,16.15,44.43,8.41a5,5,0,0,1,6.88-7.25Z" style="fill: #6e6e70"/>
      </g>
    </g>
  </g>
</svg>
