<svg id="Vorige" xmlns="http://www.w3.org/2000/svg" viewBox="0 0 76.81 52.76">
  <title>Vorige</title>
  <g id="Laag_2" data-name="Laag 2">
    <g id="Laag_1-2" data-name="Laag 1">
      <g>
        <line x1="7.82" y1="26.33" x2="71.81" y2="26.33" style="fill: none;stroke: #6e6e70;stroke-linecap: round;stroke-miterlimit: 10;stroke-width: 10px"/>
        <path d="M32.38,8.41c-7.16,7.74-14.68,15.1-22.29,22.37L9.91,31a6.21,6.21,0,0,0,1.46-2.23,5.74,5.74,0,0,0,.24-3.12,5.84,5.84,0,0,0-1.42-2.81c-.69-.7-.18-.19-.34-.34l.05,0,.09.08.36.34.72.67,1.45,1.35,2.88,2.7c1.9,1.82,3.82,3.61,5.7,5.46q5.68,5.47,11.14,11.2a5,5,0,0,1-6.78,7.35q-6.15-5-12.06-10.22c-2-1.72-3.93-3.5-5.89-5.25L4.59,33.51,3.13,32.18l-.73-.66L2,31.18,2,31.1l-.05,0-.35-.36A5.79,5.79,0,0,1,.11,27.86a5.94,5.94,0,0,1,.24-3.15,6.53,6.53,0,0,1,1.48-2.26L2,22.28C9.66,15.06,17.4,7.92,25.5,1.16a5,5,0,0,1,6.88,7.25Z" style="fill: #6e6e70"/>
      </g>
    </g>
  </g>
</svg>
